HIERARCHY
ROOT Hips
{
	OFFSET 0.000000 0.000000 0.000000
	CHANNELS 6 Xposition Yposition Zposition Xrotation Yrotation Zrotation
	JOINT LeftUpLeg_virtual
	{
		OFFSET 0.000000 0.000000 0.000000
		CHANNELS 3 Xrotation Yrotation Zrotation
		JOINT LeftUpLeg
		{
			OFFSET 11.394100 -6.187798 -0.413800
			CHANNELS 3 Xrotation Yrotation Zrotation
			JOINT LeftLeg
			{
				OFFSET 0.430247 -32.302673 3.732800
				CHANNELS 3 Xrotation Yrotation Zrotation
				JOINT LeftFoot
				{
					OFFSET -0.430247 -48.264931 -6.423300
					CHANNELS 3 Xrotation Yrotation Zrotation
					JOINT LeftToeBase
					{
						OFFSET 4.230900 -16.068199 23.438400
						CHANNELS 3 Xrotation Yrotation Zrotation
						JOINT LeftToe_End
						{
							OFFSET 4.510700 0.695400 19.974600
							CHANNELS 3 Xrotation Yrotation Zrotation
							End Site
							{
								OFFSET 0 0 0
							}
						}
					}
				}
			}
		}
	}
	JOINT RightUpLeg_virtual
	{
		OFFSET 0.000000 0.000000 0.000000
		CHANNELS 3 Xrotation Yrotation Zrotation
		JOINT RightUpLeg
		{
			OFFSET -11.333700 -6.187798 -0.413800
			CHANNELS 3 Xrotation Yrotation Zrotation
			JOINT RightLeg
			{
				OFFSET -0.430392 -32.302628 3.733000
				CHANNELS 3 Xrotation Yrotation Zrotation
				JOINT RightFoot
				{
					OFFSET 0.430392 -48.264973 -6.423500
					CHANNELS 3 Xrotation Yrotation Zrotation
					JOINT RightToeBase
					{
						OFFSET -4.230900 -16.068199 23.438400
						CHANNELS 3 Xrotation Yrotation Zrotation
						JOINT RightToe_End
						{
							OFFSET -4.510700 0.695400 19.974600
							CHANNELS 3 Xrotation Yrotation Zrotation
							End Site
							{
								OFFSET 0 0 0
							}
						}
					}
				}
			}
		}
	}
	JOINT Spine_virtual
	{
		OFFSET 0.000000 0.000000 0.000000
		CHANNELS 3 Xrotation Yrotation Zrotation
		JOINT Spine
		{
			OFFSET -0.002400 12.777504 0.315300
			CHANNELS 3 Xrotation Yrotation Zrotation
			JOINT Spine1
			{
				OFFSET -0.002067 5.816869 0.032633
				CHANNELS 3 Xrotation Yrotation Zrotation
				JOINT Spine1_split
				{
					OFFSET -0.002067 5.816869 0.032633
					CHANNELS 3 Xrotation Yrotation Zrotation
					JOINT Spine2
					{
						OFFSET -0.002067 5.816869 0.032633
						CHANNELS 3 Xrotation Yrotation Zrotation
						JOINT Neck_virtual
						{
							OFFSET 0.000000 0.000000 0.000000
							CHANNELS 3 Xrotation Yrotation Zrotation
							JOINT Neck
							{
								OFFSET -0.003700 21.199493 -0.826900
								CHANNELS 3 Xrotation Yrotation Zrotation
								JOINT Head
								{
									OFFSET 0.000000 20.442200 4.834800
									CHANNELS 3 Xrotation Yrotation Zrotation
									JOINT HeadTop_End
									{
										OFFSET 0.000000 34.668396 4.968400
										CHANNELS 3 Xrotation Yrotation Zrotation
										End Site
										{
											OFFSET 0 0 0
										}
									}
								}
							}
						}
						JOINT LeftShoulder_virtual
						{
							OFFSET 0.000000 0.000000 0.000000
							CHANNELS 3 Xrotation Yrotation Zrotation
							JOINT LeftShoulder
							{
								OFFSET 3.288150 8.794197 -1.372250
								CHANNELS 3 Xrotation Yrotation Zrotation
								JOINT LeftShoulder_split
								{
									OFFSET 3.288150 8.794197 -1.372250
									CHANNELS 3 Xrotation Yrotation Zrotation
									JOINT LeftArm
									{
										OFFSET 11.953299 -2.279007 -0.146200
										CHANNELS 3 Xrotation Yrotation Zrotation
										JOINT LeftForeArm
										{
											OFFSET 18.448900 0.000000 0.000000
											CHANNELS 3 Xrotation Yrotation Zrotation
											JOINT LeftHand
											{
												OFFSET 29.527798 0.000000 0.000000
												CHANNELS 3 Xrotation Yrotation Zrotation
												End Site
												{
													OFFSET 0 0 0
												}
											}
										}
									}
								}
							}
						}
						JOINT RightShoulder_virtual
						{
							OFFSET 0.000000 0.000000 0.000000
							CHANNELS 3 Xrotation Yrotation Zrotation
							JOINT RightShoulder
							{
								OFFSET -3.249400 8.794197 -1.372250
								CHANNELS 3 Xrotation Yrotation Zrotation
								JOINT RightShoulder_split
								{
									OFFSET -3.249400 8.794197 -1.372250
									CHANNELS 3 Xrotation Yrotation Zrotation
									JOINT RightArm
									{
										OFFSET -11.953299 -2.279007 -0.146200
										CHANNELS 3 Xrotation Yrotation Zrotation
										JOINT RightForeArm
										{
											OFFSET -18.448900 0.000000 0.000000
											CHANNELS 3 Xrotation Yrotation Zrotation
											JOINT RightHand
											{
												OFFSET -29.527802 0.000000 0.000000
												CHANNELS 3 Xrotation Yrotation Zrotation
												End Site
												{
													OFFSET 0 0 0
												}
											}
										}
									}
								}
							}
						}
					}
				}
			}
		}
	}
}
MOTION
Frames: 4
Frame Time: 0.03333333
4.608098 146.174301 11.023287 0.000000 0.000000 0.000000 9.580063 -31.325040 4.232933 -93.866730 -8.146220 26.111873 71.171828 -10.417371 6.718759 25.948213 5.697234 -12.550266 -7.595786 3.052297 -3.534932 0.000000 0.000000 0.000000 9.286455 -31.347570 3.781931 -137.722459 -14.884714 -12.476239 101.639908 10.954953 -5.084047 35.010307 16.919169 29.108395 1.508469 -45.866042 -74.956900 0.000000 0.000000 0.000000 11.610008 -25.321294 4.970889 23.606566 0.741311 -10.522000 15.221987 -3.946934 -0.736938 0.242981 0.095061 0.051635 0.000000 0.000000 0.000000 16.197520 -1.952096 -1.179333 2.120933 1.099006 -3.986051 -13.974845 46.695476 -20.873109 0.000000 0.000000 0.000000 16.864435 -3.533946 -2.420397 13.455900 -15.360961 -0.635950 2.517141 -4.175613 -1.584550 -71.262587 -19.475789 5.050700 43.661568 -0.233074 20.633093 0.000000 0.000000 0.000000 20.922131 -2.170652 -1.352011 4.742972 21.082362 -9.565387 8.242225 6.323983 1.985561 -49.253450 6.129575 5.812608 -57.295008 44.452124 31.634223 0.000000 0.000000 0.000000 
4.667442 146.088409 10.902205 0.000000 0.000000 0.000000 9.707022 -31.523085 4.289541 -93.976074 -8.226142 26.110601 71.265279 -10.479704 6.797602 26.033920 5.722056 -12.713930 -7.564125 3.003828 -3.557157 0.000000 0.000000 0.000000 9.379307 -31.500949 3.844616 -137.463267 -14.940398 -12.673847 101.419368 11.108747 -5.209888 34.884672 17.065156 29.038785 1.359511 -45.907371 -75.335621 0.000000 0.000000 0.000000 11.652164 -25.488354 5.036018 23.345757 0.847398 -10.450496 15.235104 -3.917899 -0.717867 0.239378 0.121657 0.051571 0.000000 0.000000 0.000000 16.238623 -1.930960 -1.206636 2.330690 1.004326 -4.178734 -13.225942 45.925724 -21.462602 0.000000 0.000000 0.000000 16.856547 -3.520384 -2.460246 13.292359 -15.573309 -1.292464 2.638150 -4.234640 -1.664131 -70.183561 -19.053900 5.163710 43.765380 -0.451238 20.517610 0.000000 0.000000 0.000000 20.999832 -2.137023 -1.353378 4.505454 20.954150 -8.866524 8.277783 6.276345 2.092671 -48.038619 6.401734 5.874980 -56.690157 44.390229 30.878069 0.000000 0.000000 0.000000 
4.714790 146.007996 10.769193 0.000000 0.000000 0.000000 9.846414 -31.683106 4.390543 -93.994038 -8.247779 26.100299 71.242315 -10.516032 6.823870 26.039073 5.813999 -12.805735 -7.577601 2.949189 -3.559110 0.000000 0.000000 0.000000 9.496803 -31.609989 3.946736 -137.128588 -14.988884 -12.875042 101.141667 11.263039 -5.357154 34.716274 17.176418 29.025415 1.110017 -45.921899 -75.721793 0.000000 0.000000 0.000000 11.699826 -25.616618 5.119579 23.087095 0.923419 -10.402356 15.198561 -3.894222 -0.694703 0.237823 0.141956 0.050270 0.000000 0.000000 0.000000 16.241454 -1.908594 -1.236957 2.506564 0.877507 -4.373346 -12.514236 45.081393 -21.966723 0.000000 0.000000 0.000000 16.822904 -3.503847 -2.476354 13.212043 -15.674994 -1.794243 2.695138 -4.266350 -1.853633 -69.021452 -18.574508 5.426048 43.894416 -0.697667 20.474675 0.000000 0.000000 0.000000 21.027147 -2.110134 -1.362386 4.308526 20.755640 -8.238079 8.277581 6.260783 2.337336 -46.786850 6.393825 5.670058 -56.253281 44.294115 30.336108 0.000000 0.000000 0.000000 
4.749688 145.937592 10.626472 0.000000 0.000000 0.000000 10.005532 -31.797597 4.549388 -93.922703 -8.200972 26.088958 71.090596 -10.536071 6.784495 25.960384 5.955186 -12.826052 -7.617132 2.889994 -3.525861 0.000000 0.000000 0.000000 9.632644 -31.678151 4.096840 -136.736795 -15.023764 -13.076910 100.818530 11.405359 -5.513970 34.504435 17.238774 29.060430 0.894630 -45.958871 -76.036091 0.000000 0.000000 0.000000 11.743522 -25.707326 5.236293 22.854030 0.970322 -10.381070 15.114357 -3.870791 -0.670913 0.244896 0.158382 0.055955 0.000000 0.000000 0.000000 16.200454 -1.877142 -1.275311 2.617609 0.725442 -4.542999 -11.792812 44.231994 -22.446297 0.000000 0.000000 0.000000 16.757693 -3.476154 -2.473035 13.203090 -15.704854 -2.199139 2.642902 -4.248397 -2.148942 -67.815883 -17.955659 5.751755 44.105991 -0.981008 20.555323 0.000000 0.000000 0.000000 20.993259 -2.082475 -1.382476 4.145751 20.515083 -7.635418 8.337075 6.365172 2.635596 -45.598623 6.176582 5.333623 -55.960802 44.176311 29.983636 0.000000 0.000000 0.000000 
